<?xml version="1.0" encoding="UTF-8" standalone="no"?>
<svg
   xmlns:dc="http://purl.org/dc/elements/1.1/"
   xmlns:cc="http://creativecommons.org/ns#"
   xmlns:rdf="http://www.w3.org/1999/02/22-rdf-syntax-ns#"
   xmlns:svg="http://www.w3.org/2000/svg"
   xmlns="http://www.w3.org/2000/svg"
   xmlns:sodipodi="http://sodipodi.sourceforge.net/DTD/sodipodi-0.dtd"
   xmlns:inkscape="http://www.inkscape.org/namespaces/inkscape"
   width="49.999996"
   height="49.999996"
   viewBox="0 0 49.999996 49.999996"
   version="1.1"
   id="svg8"
   sodipodi:docname="bingo.svg"
   inkscape:version="1.0.1 (3bc2e813f5, 2020-09-07)">
  <defs
     id="defs2" />
  <sodipodi:namedview
     id="base"
     pagecolor="#ffffff"
     bordercolor="#666666"
     borderopacity="1.0"
     inkscape:pageopacity="0.0"
     inkscape:pageshadow="2"
     inkscape:zoom="7.919596"
     inkscape:cx="22.993175"
     inkscape:cy="26.998051"
     inkscape:document-units="px"
     inkscape:current-layer="layer1"
     inkscape:document-rotation="0"
     showgrid="true"
     inkscape:snap-smooth-nodes="true"
     inkscape:window-width="1366"
     inkscape:window-height="704"
     inkscape:window-x="0"
     inkscape:window-y="0"
     inkscape:window-maximized="1"
     inkscape:snap-global="true"
     inkscape:pagecheckerboard="true"
     units="px"
     scale-x="0.16458">
    <inkscape:grid
       type="xygrid"
       id="grid833"
       originx="-109.80208"
       originy="-85.98959" />
  </sodipodi:namedview>
  <metadata
     id="metadata5">
    <rdf:RDF>
      <cc:Work
         rdf:about="">
        <dc:format>image/svg+xml</dc:format>
        <dc:type
           rdf:resource="http://purl.org/dc/dcmitype/StillImage" />
        <dc:title></dc:title>
      </cc:Work>
    </rdf:RDF>
  </metadata>
  <g
     inkscape:label="Capa 1"
     inkscape:groupmode="layer"
     id="layer1"
     transform="translate(-109.80208,-85.989586)">
    <rect
       style="fill:#ffffff;stroke:#000000;stroke-width:2;stroke-linecap:round;stroke-miterlimit:4;stroke-dasharray:none;paint-order:markers stroke fill;stop-color:#000000"
       id="rect1052"
       width="30"
       height="40"
       x="84.707779"
       y="123.07647"
       ry="2.00001"
       transform="rotate(-15.581984)" />
    <rect
       style="fill:#cccccc;stroke:none;stroke-width:2;stroke-linecap:round;stroke-miterlimit:4;stroke-dasharray:none;paint-order:markers stroke fill;stop-color:#000000"
       id="rect1054"
       width="6"
       height="5"
       x="88.707779"
       y="138.07646"
       ry="0.99999779"
       transform="rotate(-15.581984)" />
    <rect
       style="fill:#cccccc;stroke:none;stroke-width:2;stroke-linecap:round;stroke-miterlimit:4;stroke-dasharray:none;paint-order:markers stroke fill;stop-color:#000000"
       id="rect1058"
       width="6"
       height="5"
       x="96.707779"
       y="138.07646"
       ry="0.99999779"
       transform="rotate(-15.581984)" />
    <rect
       style="fill:#cccccc;stroke:none;stroke-width:2;stroke-linecap:round;stroke-miterlimit:4;stroke-dasharray:none;paint-order:markers stroke fill;stop-color:#000000"
       id="rect1060"
       width="6"
       height="5"
       x="104.70779"
       y="138.07646"
       ry="0.99999779"
       transform="rotate(-15.581984)" />
    <rect
       style="fill:#cccccc;stroke:none;stroke-width:2;stroke-linecap:round;stroke-miterlimit:4;stroke-dasharray:none;paint-order:markers stroke fill;stop-color:#000000"
       id="rect1064"
       width="6"
       height="5"
       x="88.707779"
       y="144.07646"
       ry="0.99999779"
       transform="rotate(-15.581984)" />
    <rect
       style="fill:#cccccc;stroke:none;stroke-width:2;stroke-linecap:round;stroke-miterlimit:4;stroke-dasharray:none;paint-order:markers stroke fill;stop-color:#000000"
       id="rect1066"
       width="6"
       height="5"
       x="96.707779"
       y="144.07646"
       ry="0.99999779"
       transform="rotate(-15.581984)" />
    <rect
       style="fill:#cccccc;stroke:none;stroke-width:2;stroke-linecap:round;stroke-miterlimit:4;stroke-dasharray:none;paint-order:markers stroke fill;stop-color:#000000"
       id="rect1068"
       width="6"
       height="5"
       x="104.70779"
       y="144.07646"
       ry="0.99999779"
       transform="rotate(-15.581984)" />
    <rect
       style="fill:#cccccc;stroke:none;stroke-width:2;stroke-linecap:round;stroke-miterlimit:4;stroke-dasharray:none;paint-order:markers stroke fill;stop-color:#000000"
       id="rect1070"
       width="6"
       height="5"
       x="88.707779"
       y="150.07646"
       ry="0.99999779"
       transform="rotate(-15.581984)" />
    <rect
       style="fill:#cccccc;stroke:none;stroke-width:2;stroke-linecap:round;stroke-miterlimit:4;stroke-dasharray:none;paint-order:markers stroke fill;stop-color:#000000"
       id="rect1072"
       width="6"
       height="5"
       x="96.707779"
       y="150.07646"
       ry="0.99999779"
       transform="rotate(-15.581984)" />
    <rect
       style="fill:#cccccc;stroke:none;stroke-width:2;stroke-linecap:round;stroke-miterlimit:4;stroke-dasharray:none;paint-order:markers stroke fill;stop-color:#000000"
       id="rect1074"
       width="6"
       height="5"
       x="104.70779"
       y="150.07646"
       ry="0.99999779"
       transform="rotate(-15.581984)" />
    <rect
       style="fill:#cccccc;stroke:none;stroke-width:2;stroke-linecap:round;stroke-miterlimit:4;stroke-dasharray:none;paint-order:markers stroke fill;stop-color:#000000"
       id="rect1076"
       width="6"
       height="5"
       x="88.707779"
       y="156.07646"
       ry="0.99999779"
       transform="rotate(-15.581984)" />
    <rect
       style="fill:#cccccc;stroke:none;stroke-width:2;stroke-linecap:round;stroke-miterlimit:4;stroke-dasharray:none;paint-order:markers stroke fill;stop-color:#000000"
       id="rect1078"
       width="6"
       height="5"
       x="96.707779"
       y="156.07646"
       ry="0.99999779"
       transform="rotate(-15.581984)" />
    <rect
       style="fill:#cccccc;stroke:none;stroke-width:2;stroke-linecap:round;stroke-miterlimit:4;stroke-dasharray:none;paint-order:markers stroke fill;stop-color:#000000"
       id="rect1080"
       width="6"
       height="5"
       x="104.70779"
       y="156.07646"
       ry="0.99999779"
       transform="rotate(-15.581984)" />
    <path
       id="rect1082"
       style="fill:#ff0000;stroke:none;stroke-width:2;stroke-linecap:round;stroke-miterlimit:4;stroke-dasharray:none;paint-order:markers stroke fill;stop-color:#000000"
       d="m 134.41085,113.43341 c -0.12311,0.0343 -0.23316,0.11537 -0.30117,0.23606 -0.13606,0.24128 -0.0514,0.54498 0.18992,0.68104 l 0.43548,0.24557 -0.24556,0.43548 c -0.13606,0.24128 -0.0514,0.54498 0.18992,0.68104 0.24129,0.13606 0.54499,0.0514 0.68105,-0.18992 l 0.24556,-0.43548 0.43548,0.24556 c 0.24129,0.13606 0.54499,0.0514 0.68105,-0.18992 0.13605,-0.24128 0.0514,-0.54499 -0.18992,-0.68104 l -0.43549,-0.24556 0.24557,-0.43549 c 0.13605,-0.24128 0.0514,-0.54499 -0.18992,-0.68104 -0.24129,-0.13606 -0.54499,-0.0514 -0.68105,0.18992 l -0.24557,0.43549 -0.43547,-0.24557 c -0.1206,-0.068 -0.25677,-0.0805 -0.37988,-0.0461 z" />
    <path
       id="path1091"
       style="fill:#ff0000;stroke:none;stroke-width:2;stroke-linecap:round;stroke-miterlimit:4;stroke-dasharray:none;paint-order:markers stroke fill;stop-color:#000000"
       d="m 143.72853,117.06396 c -0.12311,0.0343 -0.23316,0.11537 -0.30117,0.23605 -0.13606,0.24129 -0.0514,0.54499 0.18992,0.68105 l 0.43548,0.24557 -0.24556,0.43547 c -0.13606,0.24129 -0.0514,0.54499 0.18992,0.68105 0.24129,0.13606 0.54499,0.0514 0.68105,-0.18992 l 0.24555,-0.43548 0.43549,0.24556 c 0.24128,0.13605 0.54499,0.0514 0.68104,-0.18992 0.13606,-0.24129 0.0514,-0.54499 -0.18992,-0.68105 l -0.43548,-0.24555 0.24556,-0.43549 c 0.13606,-0.24129 0.0514,-0.54499 -0.18992,-0.68105 -0.24128,-0.13605 -0.54498,-0.0514 -0.68104,0.18992 l -0.24557,0.43549 -0.43548,-0.24557 c -0.1206,-0.068 -0.25676,-0.0805 -0.37987,-0.0461 z" />
    <path
       id="path1095"
       style="fill:#ff0000;stroke:none;stroke-width:2;stroke-linecap:round;stroke-miterlimit:4;stroke-dasharray:none;paint-order:markers stroke fill;stop-color:#000000"
       d="m 129.92828,127.14131 c -0.12311,0.0343 -0.23316,0.11537 -0.30117,0.23606 -0.13606,0.24128 -0.0514,0.54499 0.18992,0.68104 l 0.43548,0.24557 -0.24556,0.43548 c -0.13606,0.24128 -0.0514,0.54498 0.18992,0.68104 0.24128,0.13606 0.54499,0.0514 0.68104,-0.18992 l 0.24556,-0.43547 0.43549,0.24555 c 0.24128,0.13606 0.54499,0.0514 0.68104,-0.18992 0.13606,-0.24128 0.0514,-0.54499 -0.18992,-0.68104 l -0.43548,-0.24556 0.24556,-0.43549 c 0.13606,-0.24128 0.0514,-0.54499 -0.18992,-0.68104 -0.24128,-0.13606 -0.54499,-0.0514 -0.68104,0.18992 l -0.24557,0.43549 -0.43548,-0.24557 c -0.1206,-0.068 -0.25676,-0.0805 -0.37987,-0.0461 z" />
    <rect
       style="fill:#000000;stroke:none;stroke-width:2;stroke-linecap:round;stroke-miterlimit:4;stroke-dasharray:none;paint-order:markers stroke fill;stop-color:#000000"
       id="rect1097"
       width="5"
       height="1"
       x="86.707779"
       y="129.07646"
       ry="0.5"
       transform="rotate(-15.581984)" />
    <rect
       style="fill:#000000;stroke:none;stroke-width:2;stroke-linecap:round;stroke-miterlimit:4;stroke-dasharray:none;paint-order:markers stroke fill;stop-color:#000000"
       id="rect1099"
       width="5"
       height="1"
       x="86.707779"
       y="131.07646"
       ry="0.5"
       transform="rotate(-15.581984)" />
    <rect
       style="fill:#000000;stroke:none;stroke-width:2;stroke-linecap:round;stroke-miterlimit:4;stroke-dasharray:none;paint-order:markers stroke fill;stop-color:#000000"
       id="rect1101"
       width="5"
       height="1"
       x="107.70779"
       y="129.07646"
       ry="0.5"
       transform="rotate(-15.581984)" />
    <rect
       style="fill:#000000;stroke:none;stroke-width:2;stroke-linecap:round;stroke-miterlimit:4;stroke-dasharray:none;paint-order:markers stroke fill;stop-color:#000000"
       id="rect1103"
       width="5"
       height="1"
       x="107.70779"
       y="131.07646"
       ry="0.5"
       transform="rotate(-15.581984)" />
    <rect
       style="fill:#000000;stroke:none;stroke-width:2;stroke-linecap:round;stroke-miterlimit:4;stroke-dasharray:none;paint-order:markers stroke fill;stop-color:#000000"
       id="rect1105"
       width="2"
       height="5"
       x="92.707779"
       y="128.07646"
       ry="0.99999779"
       transform="rotate(-15.581984)" />
    <rect
       style="fill:#000000;stroke:none;stroke-width:2.82843;stroke-linecap:round;stroke-miterlimit:4;stroke-dasharray:none;paint-order:markers stroke fill;stop-color:#000000"
       id="rect1107"
       width="2.000001"
       height="5"
       x="95.707779"
       y="128.07646"
       ry="0.99999779"
       transform="rotate(-15.581984)" />
    <rect
       style="fill:#000000;stroke:none;stroke-width:2;stroke-linecap:round;stroke-miterlimit:4;stroke-dasharray:none;paint-order:markers stroke fill;stop-color:#000000"
       id="rect1109"
       width="2"
       height="5"
       x="98.707779"
       y="128.07646"
       ry="0.99999779"
       transform="rotate(-15.581984)" />
    <rect
       style="fill:#000000;stroke:none;stroke-width:2;stroke-linecap:round;stroke-miterlimit:4;stroke-dasharray:none;paint-order:markers stroke fill;stop-color:#000000"
       id="rect1111"
       width="2"
       height="5"
       x="101.70779"
       y="128.07646"
       ry="0.99999779"
       transform="rotate(-15.581984)" />
    <rect
       style="fill:#000000;stroke:none;stroke-width:2;stroke-linecap:round;stroke-miterlimit:4;stroke-dasharray:none;paint-order:markers stroke fill;stop-color:#000000"
       id="rect1115"
       width="2"
       height="5"
       x="104.70779"
       y="128.07646"
       ry="1"
       transform="rotate(-15.581984)" />
    <g
       id="g1132"
       transform="rotate(17.279074,205.16714,84.199742)">
      <path
         id="path1145"
         style="color:#000000;font-style:normal;font-variant:normal;font-weight:normal;font-stretch:normal;font-size:medium;line-height:normal;font-family:sans-serif;font-variant-ligatures:normal;font-variant-position:normal;font-variant-caps:normal;font-variant-numeric:normal;font-variant-alternates:normal;font-variant-east-asian:normal;font-feature-settings:normal;font-variation-settings:normal;text-indent:0;text-align:start;text-decoration:none;text-decoration-line:none;text-decoration-style:solid;text-decoration-color:#000000;letter-spacing:normal;word-spacing:normal;text-transform:none;writing-mode:lr-tb;direction:ltr;text-orientation:mixed;dominant-baseline:auto;baseline-shift:baseline;text-anchor:start;white-space:normal;shape-padding:0;shape-margin:0;inline-size:0;clip-rule:nonzero;display:inline;overflow:visible;visibility:visible;isolation:auto;mix-blend-mode:normal;color-interpolation:sRGB;color-interpolation-filters:linearRGB;solid-color:#000000;solid-opacity:1;vector-effect:none;fill:#000000;fill-opacity:1;fill-rule:nonzero;stroke:none;stroke-width:2;stroke-linecap:round;stroke-linejoin:miter;stroke-miterlimit:4;stroke-dasharray:none;stroke-dashoffset:0;stroke-opacity:1;paint-order:markers stroke fill;color-rendering:auto;image-rendering:auto;shape-rendering:auto;text-rendering:auto;enable-background:accumulate;stop-color:#000000"
         d="m 46,21 c -1.0907,0 -2,0.9093 -2,2 v 17.236328 l 4,8 4,-8 V 23 c 0,-1.0907 -0.90929,-2 -2,-2 z"
         transform="translate(109.80208,85.989586)" />
      <path
         style="color:#000000;font-style:normal;font-variant:normal;font-weight:normal;font-stretch:normal;font-size:medium;line-height:normal;font-family:sans-serif;font-variant-ligatures:normal;font-variant-position:normal;font-variant-caps:normal;font-variant-numeric:normal;font-variant-alternates:normal;font-variant-east-asian:normal;font-feature-settings:normal;font-variation-settings:normal;text-indent:0;text-align:start;text-decoration:none;text-decoration-line:none;text-decoration-style:solid;text-decoration-color:#000000;letter-spacing:normal;word-spacing:normal;text-transform:none;writing-mode:lr-tb;direction:ltr;text-orientation:mixed;dominant-baseline:auto;baseline-shift:baseline;text-anchor:start;white-space:normal;shape-padding:0;shape-margin:0;inline-size:0;clip-rule:nonzero;display:inline;overflow:visible;visibility:visible;isolation:auto;mix-blend-mode:normal;color-interpolation:sRGB;color-interpolation-filters:linearRGB;solid-color:#000000;solid-opacity:1;vector-effect:none;fill:#d40000;fill-opacity:1;fill-rule:nonzero;stroke:none;stroke-width:2;stroke-linecap:round;stroke-linejoin:miter;stroke-miterlimit:4;stroke-dasharray:none;stroke-dashoffset:0;stroke-opacity:1;paint-order:markers stroke fill;color-rendering:auto;image-rendering:auto;shape-rendering:auto;text-rendering:auto;enable-background:accumulate;stop-color:#000000"
         d="m 155.80209,107.98956 h 4 c 0.554,0 1,0.446 1,1 v 17 l -3,6 -3,-6 v -17 c 0,-0.554 0.446,-1 1,-1 z"
         id="path1138" />
      <path
         style="fill:#decd87;stroke:none;stroke-width:1px;stroke-linecap:butt;stroke-linejoin:miter;stroke-opacity:1"
         d="m 157.80209,131.98956 -3,-6 h 6 z"
         id="path1120" />
      <rect
         style="fill:#ff0000;stroke:none;stroke-width:2;stroke-linecap:round;stroke-miterlimit:4;stroke-dasharray:none;paint-order:markers stroke fill;stop-color:#000000"
         id="rect1122"
         width="2"
         height="2"
         x="156.80209"
         y="129.98956"
         ry="0" />
      <path
         id="path1136"
         style="color:#000000;font-style:normal;font-variant:normal;font-weight:normal;font-stretch:normal;font-size:medium;line-height:normal;font-family:sans-serif;font-variant-ligatures:normal;font-variant-position:normal;font-variant-caps:normal;font-variant-numeric:normal;font-variant-alternates:normal;font-variant-east-asian:normal;font-feature-settings:normal;font-variation-settings:normal;text-indent:0;text-align:start;text-decoration:none;text-decoration-line:none;text-decoration-style:solid;text-decoration-color:#000000;letter-spacing:normal;word-spacing:normal;text-transform:none;writing-mode:lr-tb;direction:ltr;text-orientation:mixed;dominant-baseline:auto;baseline-shift:baseline;text-anchor:start;white-space:normal;shape-padding:0;shape-margin:0;inline-size:0;clip-rule:nonzero;display:inline;overflow:visible;visibility:visible;isolation:auto;mix-blend-mode:normal;color-interpolation:sRGB;color-interpolation-filters:linearRGB;solid-color:#000000;solid-opacity:1;vector-effect:none;fill:#000000;fill-opacity:1;fill-rule:nonzero;stroke:none;stroke-width:2;stroke-linecap:round;stroke-linejoin:miter;stroke-miterlimit:4;stroke-dasharray:none;stroke-dashoffset:0;stroke-opacity:1;paint-order:markers stroke fill;color-rendering:auto;image-rendering:auto;shape-rendering:auto;text-rendering:auto;enable-background:accumulate;stop-color:#000000"
         d="m 46,21 c -1.0907,0 -2,0.9093 -2,2 v 17.236328 l 4,8 4,-8 V 23 c 0,-1.0907 -0.90929,-2 -2,-2 z m 0,1 h 4 c 0.554,0 1,0.446 1,1 v 17 l -3,6 -3,-6 V 23 c 0,-0.554 0.446,-1 1,-1 z"
         transform="translate(109.80208,85.989586)" />
      <rect
         style="opacity:0.1;fill:#ffffff;stroke:none;stroke-width:2;stroke-linecap:round;stroke-miterlimit:4;stroke-dasharray:none;paint-order:markers stroke fill;stop-color:#000000"
         id="rect1150"
         width="2.000001"
         height="18.000002"
         x="154.80209"
         y="107.98956" />
      <rect
         style="opacity:0.2;fill:#000000;stroke:none;stroke-width:2;stroke-linecap:round;stroke-miterlimit:4;stroke-dasharray:none;paint-order:markers stroke fill;stop-color:#000000"
         id="rect1152"
         width="2.000001"
         height="18.000002"
         x="158.80209"
         y="107.98956" />
    </g>
  </g>
</svg>
