<svg xmlns="http://www.w3.org/2000/svg" width="24" height="24" viewBox="0 0 24 24"><ellipse cx="12" cy="24" rx="12" ry="8" fill="#fff"/><circle cx="12" cy="10" r="4" fill="#fff"/>
<path fill="#000" transform="translate(24,0)" d="M 8 7 h 3v -2h 2v 2a 3,3 0 0,1 0,6v -2a 3,3 0 0,1 0,6v 2h -2v -2h -3z m 2 2 v2 h3 a1,1 0 0,0 0,-2 h-3z m 0 4 v2 h3 a1,1 0 0,0 0,-2 h-3"></path>
<path fill="#000" transform="translate(48,0)" d="M 6 11 h5v-5h2v5h5v2h-5v5h-2v-5h-5z"></path>
<path fill="#fff" transform="translate(72,0)" d="M12,1c-1.885,1.885,-3.771,3.771,-5.656,5.656c0.471,0.472,0.942,0.943,1.414,1.414l3.242,-3.242l0,11.172l2,0l0,-11.172c1.081,1.081,2.161,2.162,3.242,3.242c0.472,-0.471,0.943,-0.942,1.414,-1.414c-1.885,-1.885,-3.771,-3.771,-5.656,-5.656zm-8,11v8h16v-8h-2v6h-12v-6h-2z"></path>
<path fill="#fff" transform="translate(96,0)" d="M11,1l0,11.172c-1.081,-1.081,-2.161,-2.162,-3.242,-3.242c-0.472,0.471,-0.943,0.942,-1.414,1.414c1.885,1.885,3.771,3.771,5.656,5.656c1.885,-1.885,3.771,-3.771,5.656,-5.656c-0.471,-0.472,-0.942,-0.943,-1.414,-1.414c-1.081,1.08,-2.161,2.161,-3.242,3.242l0,-11.172l-2,0zm-7,11v8h16v-8h-2v6h-12v-6h-2z"></path>
<path fill="#fff" transform="translate(119,2) rotate(45 12 10)" d="M 8 14 h6 v-14 h2 v16 h-8 z"></path>
<path fill="red" transform="translate(144,0) rotate(45 12 12)" d="M 6 11 h5v-5h2v5h5v2h-5v5h-2v-5h-5z"></path>
<path fill="#fff" transform="translate(168,0)" d="M 0 18 h6 v-10 l4 -4 l4 4 v5 h5 v5 h5 v6 h-24z"></path>

<view id="human" viewBox="0 0 24 24" />
<view id="bank" viewBox="24 0 24 24" />
<view id="add" viewBox="48 0 24 24" />
<view id="out" viewBox="72 0 24 24" />
<view id="in" viewBox="96 0 24 24" />
<view id="ok" viewBox="120 0 24 24" />
<view id="cancel" viewBox="144 0 24 24" />
<view id="property" viewBox="168 0 24 24" />
</svg>