<?xml version="1.0" encoding="UTF-8" standalone="no"?>
<svg
   xmlns:dc="http://purl.org/dc/elements/1.1/"
   xmlns:cc="http://creativecommons.org/ns#"
   xmlns:rdf="http://www.w3.org/1999/02/22-rdf-syntax-ns#"
   xmlns:svg="http://www.w3.org/2000/svg"
   xmlns="http://www.w3.org/2000/svg"
   xmlns:sodipodi="http://sodipodi.sourceforge.net/DTD/sodipodi-0.dtd"
   xmlns:inkscape="http://www.inkscape.org/namespaces/inkscape"
   width="13.229166mm"
   height="13.229166mm"
   viewBox="0 0 13.229166 13.229166"
   version="1.1"
   id="svg8"
   sodipodi:docname="icons (copia).svg"
   inkscape:version="1.0.1 (3bc2e813f5, 2020-09-07)">
  <defs
     id="defs2" />
  <sodipodi:namedview
     id="base"
     pagecolor="#ffffff"
     bordercolor="#666666"
     borderopacity="1.0"
     inkscape:pageopacity="0.0"
     inkscape:pageshadow="2"
     inkscape:zoom="2.8"
     inkscape:cx="15.761359"
     inkscape:cy="29.168994"
     inkscape:document-units="mm"
     inkscape:current-layer="layer1"
     inkscape:document-rotation="0"
     showgrid="true"
     inkscape:snap-smooth-nodes="true"
     inkscape:window-width="1366"
     inkscape:window-height="704"
     inkscape:window-x="0"
     inkscape:window-y="27"
     inkscape:window-maximized="1"
     inkscape:snap-global="true"
     inkscape:pagecheckerboard="true">
    <inkscape:grid
       type="xygrid"
       id="grid833"
       originx="-109.80208"
       originy="-85.98959" />
  </sodipodi:namedview>
  <metadata
     id="metadata5">
    <rdf:RDF>
      <cc:Work
         rdf:about="">
        <dc:format>image/svg+xml</dc:format>
        <dc:type
           rdf:resource="http://purl.org/dc/dcmitype/StillImage" />
        <dc:title />
      </cc:Work>
    </rdf:RDF>
  </metadata>
  <g
     inkscape:label="Capa 1"
     inkscape:groupmode="layer"
     id="layer1"
     transform="translate(-109.80208,-85.989586)">
    <path
       id="rect1076"
       style="fill:none;fill-opacity:1;stroke:#000000;stroke-width:0.529167;stroke-linecap:round;stroke-linejoin:round;stroke-miterlimit:4;stroke-dasharray:none;paint-order:stroke markers fill"
       d="m 118.92531,87.980911 -1.99107,0.08502 c -0.0217,-0.0011 -0.0436,-1.7e-5 -0.0656,9.05e-4 l -0.30138,-0.03166 c -0.12913,-0.01344 -0.25199,0.01158 -0.36156,0.06196 l -1.67838,0.07146 c -0.28259,0.01205 -0.51663,0.190272 -0.61496,0.435966 l -1.47113,0.272705 c -0.37861,0.07018 -0.62681,0.431135 -0.5566,0.809522 l 1.22496,6.602354 c 0.0702,0.378387 0.43185,0.626891 0.81046,0.556716 l 3.24046,-0.600584 2.94542,0.306172 c 0.383,0.03985 0.72352,-0.235905 0.76339,-0.618674 l 0.69597,-6.679236 c 0.0399,-0.38277 -0.23649,-0.722635 -0.61949,-0.762489 l -1.38017,-0.143814 c -0.12199,-0.227389 -0.36419,-0.378097 -0.64031,-0.366321 z" />
    <g
       id="g1024"
       transform="matrix(0.86098904,-0.15958186,0.15967651,0.86047871,-10.390501,33.929165)"
       style="stroke-width:1.14232">
      <rect
         style="opacity:1;fill:#f9f9f9;fill-opacity:1;stroke:none;stroke-width:0.302239;stroke-linecap:round;stroke-linejoin:round;stroke-miterlimit:4;stroke-dasharray:none;paint-order:stroke markers fill"
         id="rect1014"
         width="6.614583"
         height="9.260417"
         x="125.67709"
         y="87.312492"
         ry="0.7937535" />
      <rect
         style="opacity:1;fill:#ff0000;fill-opacity:1;stroke:none;stroke-width:3.02239;stroke-linecap:round;stroke-linejoin:round;stroke-miterlimit:4;stroke-dasharray:none;paint-order:stroke markers fill"
         id="rect1018"
         width="0.79374522"
         height="1.3229156"
         x="126.20625"
         y="88.106247"
         ry="0.26458228" />
      <rect
         style="opacity:1;fill:#ff0000;fill-opacity:1;stroke:none;stroke-width:3.02239;stroke-linecap:round;stroke-linejoin:round;stroke-miterlimit:4;stroke-dasharray:none;paint-order:stroke markers fill"
         id="rect1020"
         width="0.79374522"
         height="1.3229156"
         x="130.96875"
         y="94.456245"
         ry="0.26458228" />
      <path
         style="fill:#ff0000;fill-opacity:1;stroke:none;stroke-width:0.285588px;stroke-linecap:butt;stroke-linejoin:miter;stroke-opacity:1"
         d="m 128.98438,90.525288 -0.52916,-0.944941 0.52916,-0.944942 0.52917,0.944942 z"
         id="path1026" />
      <path
         style="fill:#ff0000;fill-opacity:1;stroke:none;stroke-width:0.285588px;stroke-linecap:butt;stroke-linejoin:miter;stroke-opacity:1"
         d="m 128.98438,92.887642 -0.52916,-0.944941 0.52916,-0.944942 0.52917,0.944942 z"
         id="path1028" />
      <path
         style="fill:#ff0000;fill-opacity:1;stroke:none;stroke-width:0.285588px;stroke-linecap:butt;stroke-linejoin:miter;stroke-opacity:1"
         d="m 128.98438,95.249996 -0.52916,-0.944941 0.52916,-0.944942 0.52917,0.944942 z"
         id="path1030" />
    </g>
    <g
       id="g1002"
       transform="matrix(0.87487416,-0.0373127,0.03733483,0.8743556,0.62131825,16.545389)"
       style="stroke-width:1.14232">
      <rect
         style="opacity:1;fill:#ececec;fill-opacity:1;stroke:none;stroke-width:0.302239;stroke-linecap:round;stroke-linejoin:round;stroke-miterlimit:4;stroke-dasharray:none;paint-order:stroke markers fill"
         id="rect994"
         width="6.614583"
         height="9.260417"
         x="125.67709"
         y="87.312492"
         ry="0.7937535" />
      <path
         id="path996"
         style="opacity:1;fill:#000000;fill-opacity:1;stroke:none;stroke-width:0.213737;stroke-linecap:round;stroke-linejoin:round;stroke-miterlimit:4;stroke-dasharray:none;paint-order:stroke markers fill"
         d="m 128.98439,92.65039 -0.66146,0.661823 a 0.46777094,0.46777094 0 0 0 0,0.661457 0.46777094,0.46777094 0 0 0 0.56791,0.07236 v 0.27043 c 0,0.05183 0.0417,0.09355 0.0935,0.09355 0.0518,0 0.0936,-0.04172 0.0936,-0.09355 v -0.27043 a 0.46777094,0.46777094 0 0 0 0.55876,-0.06322 0.46777094,0.46777094 0 0 0 0.009,-0.0091 0.46777094,0.46777094 0 0 0 0,-0.661457 z" />
      <rect
         style="opacity:1;fill:#000000;fill-opacity:1;stroke:none;stroke-width:3.02239;stroke-linecap:round;stroke-linejoin:round;stroke-miterlimit:4;stroke-dasharray:none;paint-order:stroke markers fill"
         id="rect998"
         width="0.79374522"
         height="1.3229156"
         x="126.20625"
         y="88.106247"
         ry="0.26458228" />
      <rect
         style="opacity:1;fill:#000000;fill-opacity:1;stroke:none;stroke-width:3.02239;stroke-linecap:round;stroke-linejoin:round;stroke-miterlimit:4;stroke-dasharray:none;paint-order:stroke markers fill"
         id="rect1000"
         width="0.79374522"
         height="1.3229156"
         x="130.96875"
         y="94.456245"
         ry="0.26458228" />
      <path
         id="path1012"
         style="opacity:1;fill:#000000;fill-opacity:1;stroke:none;stroke-width:0.213737;stroke-linecap:round;stroke-linejoin:round;stroke-miterlimit:4;stroke-dasharray:none;paint-order:stroke markers fill"
         d="m 128.98439,89.475388 -0.66146,0.661823 a 0.46777094,0.46777094 0 0 0 0,0.661457 0.46777094,0.46777094 0 0 0 0.56791,0.07236 v 0.27043 c 0,0.05183 0.0417,0.09355 0.0935,0.09355 0.0518,0 0.0936,-0.04172 0.0936,-0.09355 v -0.27043 a 0.46777094,0.46777094 0 0 0 0.55876,-0.06322 0.46777094,0.46777094 0 0 0 0.009,-0.0091 0.46777094,0.46777094 0 0 0 0,-0.661457 z" />
    </g>
    <g
       id="g992"
       transform="matrix(0.87096224,0.09062959,-0.09068334,0.87044599,14.333851,0.57245147)"
       style="stroke-width:1.14232">
      <rect
         style="opacity:1;fill:#f9f9f9;fill-opacity:1;stroke:none;stroke-width:0.302239;stroke-linecap:round;stroke-linejoin:round;stroke-miterlimit:4;stroke-dasharray:none;paint-order:stroke markers fill"
         id="rect944"
         width="6.614583"
         height="9.260417"
         x="125.67709"
         y="87.312492"
         ry="0.7937535" />
      <path
         id="path946"
         style="opacity:1;fill:#ff0000;fill-opacity:1;stroke:none;stroke-width:0.302239;stroke-linecap:round;stroke-linejoin:round;stroke-miterlimit:4;stroke-dasharray:none;paint-order:stroke markers fill"
         d="m 129.90668,91.090696 a 0.6614583,0.6614583 0 0 0 -0.92229,0.01315 0.6614583,0.6614583 0 0 0 -0.93544,0 0.6614583,0.6614583 0 0 0 0,0.935443 l 0.93544,0.935443 0.93544,-0.935443 a 0.6614583,0.6614583 0 0 0 0,-0.935443 0.6614583,0.6614583 0 0 0 -0.0131,-0.01315 z" />
      <rect
         style="opacity:1;fill:#ff0000;fill-opacity:1;stroke:none;stroke-width:3.02239;stroke-linecap:round;stroke-linejoin:round;stroke-miterlimit:4;stroke-dasharray:none;paint-order:stroke markers fill"
         id="rect984"
         width="0.79374522"
         height="1.3229156"
         x="126.20625"
         y="88.106247"
         ry="0.26458228" />
      <rect
         style="opacity:1;fill:#ff0000;fill-opacity:1;stroke:none;stroke-width:3.02239;stroke-linecap:round;stroke-linejoin:round;stroke-miterlimit:4;stroke-dasharray:none;paint-order:stroke markers fill"
         id="rect986"
         width="0.79374522"
         height="1.3229156"
         x="130.96875"
         y="94.456245"
         ry="0.26458228" />
    </g>
  </g>
</svg>
