<?xml version="1.0" encoding="UTF-8" standalone="no"?>
<svg
   xmlns:dc="http://purl.org/dc/elements/1.1/"
   xmlns:cc="http://creativecommons.org/ns#"
   xmlns:rdf="http://www.w3.org/1999/02/22-rdf-syntax-ns#"
   xmlns:svg="http://www.w3.org/2000/svg"
   xmlns="http://www.w3.org/2000/svg"
   xmlns:sodipodi="http://sodipodi.sourceforge.net/DTD/sodipodi-0.dtd"
   xmlns:inkscape="http://www.inkscape.org/namespaces/inkscape"
   width="13.229166mm"
   height="13.229166mm"
   viewBox="0 0 13.229166 13.229166"
   version="1.1"
   id="svg8"
   sodipodi:docname="icons.svg"
   inkscape:version="1.0.1 (3bc2e813f5, 2020-09-07)">
  <defs
     id="defs2" />
  <sodipodi:namedview
     id="base"
     pagecolor="#ffffff"
     bordercolor="#666666"
     borderopacity="1.0"
     inkscape:pageopacity="0.0"
     inkscape:pageshadow="2"
     inkscape:zoom="3.959798"
     inkscape:cx="59.115111"
     inkscape:cy="11.472967"
     inkscape:document-units="mm"
     inkscape:current-layer="layer1"
     inkscape:document-rotation="0"
     showgrid="true"
     inkscape:snap-smooth-nodes="true"
     inkscape:window-width="1366"
     inkscape:window-height="704"
     inkscape:window-x="0"
     inkscape:window-y="27"
     inkscape:window-maximized="1"
     inkscape:snap-global="false"
     inkscape:pagecheckerboard="true">
    <inkscape:grid
       type="xygrid"
       id="grid833"
       originx="-109.80208"
       originy="-85.98959" />
  </sodipodi:namedview>
  <metadata
     id="metadata5">
    <rdf:RDF>
      <cc:Work
         rdf:about="">
        <dc:format>image/svg+xml</dc:format>
        <dc:type
           rdf:resource="http://purl.org/dc/dcmitype/StillImage" />
        <dc:title></dc:title>
      </cc:Work>
    </rdf:RDF>
  </metadata>
  <g
     inkscape:label="Capa 1"
     inkscape:groupmode="layer"
     id="layer1"
     transform="translate(-109.80208,-85.989586)">
    <path
       id="rect956"
       style="fill:none;stroke-width:2.00000003;stroke-linecap:round;stroke-linejoin:round;paint-order:stroke markers fill;stroke:#000000;stroke-miterlimit:4;stroke-dasharray:none"
       d="M 35.103516 5.1269531 L 27.710938 7.4785156 L 26.884766 6.0078125 L 19.771484 10.003906 L 19.757812 10.007812 L 18.791016 8.8808594 L 13.148438 13.726562 L 11.193359 14.824219 L 11.412109 15.214844 L 5.1347656 20.605469 L 25.980469 44.884766 L 31.587891 40.070312 L 32.591797 39.505859 L 44.804688 35.619141 L 35.103516 5.1269531 z "
       transform="matrix(0.26458333,0,0,0.26458333,109.80208,85.989586)" />
    <g
       id="g928"
       transform="rotate(49.350418,117.08538,96.302882)">
      <rect
         style="fill:#2ca05a;stroke-width:2.64583;stroke-linecap:round;stroke-linejoin:round;paint-order:stroke markers fill"
         id="rect869"
         width="8.4666662"
         height="4.7624998"
         x="109.5375"
         y="92.868752" />
      <path
         id="path849"
         style="opacity:0.5;fill:#ffffff;stroke-width:9.99999;stroke-linecap:round;stroke-linejoin:round;paint-order:stroke markers fill"
         d="m 416,353 v 13 1 h 28 v -1 -12 -1 h -27 z m 1,1 h 26 v 12 h -26 z m 2.5,1 a 1.5,1.5 0 0 0 -1.5,1.5 1.5,1.5 0 0 0 1.5,1.5 1.5,1.5 0 0 0 1.5,-1.5 1.5,1.5 0 0 0 -1.5,-1.5 z m 10.5,0 a 4.9999996,4.9999996 0 0 0 -5,5 4.9999996,4.9999996 0 0 0 5,5 4.9999996,4.9999996 0 0 0 5,-5 4.9999996,4.9999996 0 0 0 -5,-5 z m 9,0 v 3 h 3 v -3 z m -20,1 h 1 v 1 h -1 z m 21.48828,0 a 0.49999996,0.49999996 0 0 1 0.0117,0 0.49999996,0.49999996 0 0 1 0.5,0.5 0.49999996,0.49999996 0 0 1 -0.5,0.5 0.49999996,0.49999996 0 0 1 -0.5,-0.5 0.49999996,0.49999996 0 0 1 0.48828,-0.5 z m -10.92773,0.46094 h 0.9082 v 1.33789 h 1.15625 v 1.08008 h -2.1875 c -0.0756,0 -0.1407,0.0274 -0.19336,0.0801 -0.0527,0.0494 -0.0781,0.10924 -0.0781,0.18164 0,0.0757 0.0255,0.1407 0.0781,0.19336 0.0527,0.0527 0.11777,0.0781 0.19336,0.0781 h 1.125 c 0.18419,0 0.35815,0.0312 0.51953,0.0937 0.16454,0.0625 0.30593,0.14982 0.42774,0.26172 0.1217,0.1119 0.21781,0.2457 0.28711,0.40039 0.0723,0.15468 0.10937,0.3235 0.10937,0.50781 0,0.18759 -0.0371,0.36473 -0.10937,0.5293 -0.069,0.16456 -0.16516,0.30791 -0.28711,0.42969 -0.12171,0.11847 -0.2631,0.21274 -0.42774,0.28515 -0.16126,0.0691 -0.33522,0.10352 -0.51953,0.10352 h -0.0937 v 1.51562 h -0.9082 v -1.51562 h -1.4668 v -1.07032 h 2.46875 c 0.069,10e-6 0.13093,-0.0274 0.18359,-0.0801 0.0527,-0.0559 0.0781,-0.12155 0.0781,-0.19727 0,-0.0757 -0.0255,-0.12282 -0.0781,-0.14258 -0.0527,-0.0229 -0.11455,-0.0352 -0.18359,-0.0352 h -1.125 c -0.18746,0 -0.36461,-0.0344 -0.5293,-0.10352 -0.16126,-0.0724 -0.30203,-0.16924 -0.42382,-0.29101 -0.11843,-0.12506 -0.21285,-0.26903 -0.28516,-0.4336 -0.069,-0.16456 -0.10352,-0.3417 -0.10352,-0.5293 0,-0.1843 0.0345,-0.35631 0.10352,-0.51757 0.0723,-0.16456 0.16673,-0.30792 0.28516,-0.42969 0.12169,-0.12178 0.26246,-0.218 0.42382,-0.28711 0.16454,-0.0724 0.34168,-0.10742 0.5293,-0.10742 h 0.12305 z M 418,362 v 3 h 3 v -3 z m 22.5,0 a 1.5,1.5 0 0 0 -1.5,1.5 1.5,1.5 0 0 0 1.5,1.5 1.5,1.5 0 0 0 1.5,-1.5 1.5,1.5 0 0 0 -1.5,-1.5 z m -21.01172,1 a 0.49999996,0.49999996 0 0 1 0.0117,0 0.49999996,0.49999996 0 0 1 0.5,0.5 0.49999996,0.49999996 0 0 1 -0.5,0.5 0.49999996,0.49999996 0 0 1 -0.5,-0.5 0.49999996,0.49999996 0 0 1 0.48828,-0.5 z M 440,363 h 1 v 1 h -1 z"
         transform="scale(0.26458333)" />
    </g>
    <g
       id="g934"
       transform="rotate(72.349608,118.09008,96.639064)">
      <rect
         style="fill:#de87aa;stroke-width:2.64583;stroke-linecap:round;stroke-linejoin:round;paint-order:stroke markers fill"
         id="rect930"
         width="8.4666662"
         height="4.7624998"
         x="109.5375"
         y="92.868752" />
      <path
         id="path932"
         style="opacity:0.5;fill:#ffffff;stroke-width:9.99999;stroke-linecap:round;stroke-linejoin:round;paint-order:stroke markers fill"
         d="m 416,353 v 13 1 h 28 v -1 -12 -1 h -27 z m 1,1 h 26 v 12 h -26 z m 2.5,1 a 1.5,1.5 0 0 0 -1.5,1.5 1.5,1.5 0 0 0 1.5,1.5 1.5,1.5 0 0 0 1.5,-1.5 1.5,1.5 0 0 0 -1.5,-1.5 z m 10.5,0 a 4.9999996,4.9999996 0 0 0 -5,5 4.9999996,4.9999996 0 0 0 5,5 4.9999996,4.9999996 0 0 0 5,-5 4.9999996,4.9999996 0 0 0 -5,-5 z m 9,0 v 3 h 3 v -3 z m -20,1 h 1 v 1 h -1 z m 21.48828,0 a 0.49999996,0.49999996 0 0 1 0.0117,0 0.49999996,0.49999996 0 0 1 0.5,0.5 0.49999996,0.49999996 0 0 1 -0.5,0.5 0.49999996,0.49999996 0 0 1 -0.5,-0.5 0.49999996,0.49999996 0 0 1 0.48828,-0.5 z m -10.92773,0.46094 h 0.9082 v 1.33789 h 1.15625 v 1.08008 h -2.1875 c -0.0756,0 -0.1407,0.0274 -0.19336,0.0801 -0.0527,0.0494 -0.0781,0.10924 -0.0781,0.18164 0,0.0757 0.0255,0.1407 0.0781,0.19336 0.0527,0.0527 0.11777,0.0781 0.19336,0.0781 h 1.125 c 0.18419,0 0.35815,0.0312 0.51953,0.0937 0.16454,0.0625 0.30593,0.14982 0.42774,0.26172 0.1217,0.1119 0.21781,0.2457 0.28711,0.40039 0.0723,0.15468 0.10937,0.3235 0.10937,0.50781 0,0.18759 -0.0371,0.36473 -0.10937,0.5293 -0.069,0.16456 -0.16516,0.30791 -0.28711,0.42969 -0.12171,0.11847 -0.2631,0.21274 -0.42774,0.28515 -0.16126,0.0691 -0.33522,0.10352 -0.51953,0.10352 h -0.0937 v 1.51562 h -0.9082 v -1.51562 h -1.4668 v -1.07032 h 2.46875 c 0.069,10e-6 0.13093,-0.0274 0.18359,-0.0801 0.0527,-0.0559 0.0781,-0.12155 0.0781,-0.19727 0,-0.0757 -0.0255,-0.12282 -0.0781,-0.14258 -0.0527,-0.0229 -0.11455,-0.0352 -0.18359,-0.0352 h -1.125 c -0.18746,0 -0.36461,-0.0344 -0.5293,-0.10352 -0.16126,-0.0724 -0.30203,-0.16924 -0.42382,-0.29101 -0.11843,-0.12506 -0.21285,-0.26903 -0.28516,-0.4336 -0.069,-0.16456 -0.10352,-0.3417 -0.10352,-0.5293 0,-0.1843 0.0345,-0.35631 0.10352,-0.51757 0.0723,-0.16456 0.16673,-0.30792 0.28516,-0.42969 0.12169,-0.12178 0.26246,-0.218 0.42382,-0.28711 0.16454,-0.0724 0.34168,-0.10742 0.5293,-0.10742 h 0.12305 z M 418,362 v 3 h 3 v -3 z m 22.5,0 a 1.5,1.5 0 0 0 -1.5,1.5 1.5,1.5 0 0 0 1.5,1.5 1.5,1.5 0 0 0 1.5,-1.5 1.5,1.5 0 0 0 -1.5,-1.5 z m -21.01172,1 a 0.49999996,0.49999996 0 0 1 0.0117,0 0.49999996,0.49999996 0 0 1 0.5,0.5 0.49999996,0.49999996 0 0 1 -0.5,0.5 0.49999996,0.49999996 0 0 1 -0.5,-0.5 0.49999996,0.49999996 0 0 1 0.48828,-0.5 z M 440,363 h 1 v 1 h -1 z"
         transform="scale(0.26458333)" />
    </g>
    <g
       id="g940"
       transform="rotate(60.672043,117.74596,96.527908)">
      <rect
         style="fill:#c87137;stroke-width:2.64583;stroke-linecap:round;stroke-linejoin:round;paint-order:stroke markers fill"
         id="rect936"
         width="8.4666662"
         height="4.7624998"
         x="109.5375"
         y="92.868752" />
      <path
         id="path938"
         style="opacity:0.5;fill:#ffffff;stroke-width:9.99999;stroke-linecap:round;stroke-linejoin:round;paint-order:stroke markers fill"
         d="m 416,353 v 13 1 h 28 v -1 -12 -1 h -27 z m 1,1 h 26 v 12 h -26 z m 2.5,1 a 1.5,1.5 0 0 0 -1.5,1.5 1.5,1.5 0 0 0 1.5,1.5 1.5,1.5 0 0 0 1.5,-1.5 1.5,1.5 0 0 0 -1.5,-1.5 z m 10.5,0 a 4.9999996,4.9999996 0 0 0 -5,5 4.9999996,4.9999996 0 0 0 5,5 4.9999996,4.9999996 0 0 0 5,-5 4.9999996,4.9999996 0 0 0 -5,-5 z m 9,0 v 3 h 3 v -3 z m -20,1 h 1 v 1 h -1 z m 21.48828,0 a 0.49999996,0.49999996 0 0 1 0.0117,0 0.49999996,0.49999996 0 0 1 0.5,0.5 0.49999996,0.49999996 0 0 1 -0.5,0.5 0.49999996,0.49999996 0 0 1 -0.5,-0.5 0.49999996,0.49999996 0 0 1 0.48828,-0.5 z m -10.92773,0.46094 h 0.9082 v 1.33789 h 1.15625 v 1.08008 h -2.1875 c -0.0756,0 -0.1407,0.0274 -0.19336,0.0801 -0.0527,0.0494 -0.0781,0.10924 -0.0781,0.18164 0,0.0757 0.0255,0.1407 0.0781,0.19336 0.0527,0.0527 0.11777,0.0781 0.19336,0.0781 h 1.125 c 0.18419,0 0.35815,0.0312 0.51953,0.0937 0.16454,0.0625 0.30593,0.14982 0.42774,0.26172 0.1217,0.1119 0.21781,0.2457 0.28711,0.40039 0.0723,0.15468 0.10937,0.3235 0.10937,0.50781 0,0.18759 -0.0371,0.36473 -0.10937,0.5293 -0.069,0.16456 -0.16516,0.30791 -0.28711,0.42969 -0.12171,0.11847 -0.2631,0.21274 -0.42774,0.28515 -0.16126,0.0691 -0.33522,0.10352 -0.51953,0.10352 h -0.0937 v 1.51562 h -0.9082 v -1.51562 h -1.4668 v -1.07032 h 2.46875 c 0.069,10e-6 0.13093,-0.0274 0.18359,-0.0801 0.0527,-0.0559 0.0781,-0.12155 0.0781,-0.19727 0,-0.0757 -0.0255,-0.12282 -0.0781,-0.14258 -0.0527,-0.0229 -0.11455,-0.0352 -0.18359,-0.0352 h -1.125 c -0.18746,0 -0.36461,-0.0344 -0.5293,-0.10352 -0.16126,-0.0724 -0.30203,-0.16924 -0.42382,-0.29101 -0.11843,-0.12506 -0.21285,-0.26903 -0.28516,-0.4336 -0.069,-0.16456 -0.10352,-0.3417 -0.10352,-0.5293 0,-0.1843 0.0345,-0.35631 0.10352,-0.51757 0.0723,-0.16456 0.16673,-0.30792 0.28516,-0.42969 0.12169,-0.12178 0.26246,-0.218 0.42382,-0.28711 0.16454,-0.0724 0.34168,-0.10742 0.5293,-0.10742 h 0.12305 z M 418,362 v 3 h 3 v -3 z m 22.5,0 a 1.5,1.5 0 0 0 -1.5,1.5 1.5,1.5 0 0 0 1.5,1.5 1.5,1.5 0 0 0 1.5,-1.5 1.5,1.5 0 0 0 -1.5,-1.5 z m -21.01172,1 a 0.49999996,0.49999996 0 0 1 0.0117,0 0.49999996,0.49999996 0 0 1 0.5,0.5 0.49999996,0.49999996 0 0 1 -0.5,0.5 0.49999996,0.49999996 0 0 1 -0.5,-0.5 0.49999996,0.49999996 0 0 1 0.48828,-0.5 z M 440,363 h 1 v 1 h -1 z"
         transform="scale(0.26458333)" />
    </g>
  </g>
</svg>
