<?xml version="1.0" encoding="UTF-8" standalone="no"?>
<svg
   xmlns:dc="http://purl.org/dc/elements/1.1/"
   xmlns:cc="http://creativecommons.org/ns#"
   xmlns:rdf="http://www.w3.org/1999/02/22-rdf-syntax-ns#"
   xmlns:svg="http://www.w3.org/2000/svg"
   xmlns="http://www.w3.org/2000/svg"
   xmlns:sodipodi="http://sodipodi.sourceforge.net/DTD/sodipodi-0.dtd"
   xmlns:inkscape="http://www.inkscape.org/namespaces/inkscape"
   width="392.437"
   height="163.294"
   viewBox="0 0 103.832 43.205"
   version="1.1"
   id="svg965"
   sodipodi:docname="score.svg"
   inkscape:version="1.0.1 (3bc2e813f5, 2020-09-07)">
  <metadata
     id="metadata971">
    <rdf:RDF>
      <cc:Work
         rdf:about="">
        <dc:format>image/svg+xml</dc:format>
        <dc:type
           rdf:resource="http://purl.org/dc/dcmitype/StillImage" />
      </cc:Work>
    </rdf:RDF>
  </metadata>
  <defs
     id="defs969" />
  <sodipodi:namedview
     pagecolor="#ffffff"
     bordercolor="#666666"
     borderopacity="1"
     objecttolerance="10"
     gridtolerance="10"
     guidetolerance="10"
     inkscape:pageopacity="0"
     inkscape:pageshadow="2"
     inkscape:window-width="1366"
     inkscape:window-height="704"
     id="namedview967"
     showgrid="false"
     inkscape:zoom="0.66127346"
     inkscape:cx="273.80507"
     inkscape:cy="254.54632"
     inkscape:window-x="0"
     inkscape:window-y="0"
     inkscape:window-maximized="1"
     inkscape:current-layer="svg965"
     inkscape:document-rotation="0"
     inkscape:snap-page="true" />
  <g
     transform="translate(-48.832 -86.17)"
     id="g963">
    <path
       d="M96.995 116c-.866-.5-1.737-1.994-1.732-3v-6c0-1 .866-2.5 1.732-3l5.196-3c.866-.5 2.598-.5 3.464 0l5.196 3c.866.5 1.732 2 1.732 3v6c0 1-.866 2.5-1.732 3l-5.196 3c-.866.5-2.598.5-3.464 0z"
       fill="#c83737"
       id="path939" />
    <path
       d="M95.804 105.312c-.325.563-.541 1.188-.541 1.688v6c-.005 1.003.861 2.492 1.725 2.996l3.873 2.236 1.33.768c.433.25 1.082.375 1.732.375V112c0-1.215-.866-2.5-1.732-3z"
       fill="#a02c2c"
       id="path941" />
    <path
       d="M112.042 105.312L105.655 109c-.866.5-1.732 2-1.732 3v7.375c.647 0 1.294-.124 1.727-.372l.005-.003 5.203-3.004c.861-.502 1.72-1.99 1.725-2.987V107c0-.5-.216-1.126-.54-1.688z"
       fill="#f55"
       id="path943" />
    <path
       d="M103.923 100.625c-.65 0-1.299.125-1.732.375l-5.196 3c-.433.25-.866.75-1.191 1.312l6.387 3.688c.866.5 2.598.5 3.464 0l6.387-3.688c-.325-.562-.758-1.062-1.19-1.312l-5.197-3c-.433-.25-1.083-.375-1.732-.375z"
       fill="#d35f5f"
       id="path945" />
    <ellipse
       cx="103.923"
       cy="107"
       rx="1.369"
       ry=".791"
       fill="#fff"
       paint-order="stroke markers fill"
       id="ellipse947" />
    <ellipse
       cx="103.923"
       cy="103"
       rx="1.369"
       ry=".791"
       fill="#fff"
       paint-order="stroke markers fill"
       id="ellipse949" />
    <ellipse
       cx="107.387"
       cy="105"
       rx="1.369"
       ry=".791"
       fill="#fff"
       paint-order="stroke markers fill"
       id="ellipse951" />
    <ellipse
       cx="100.459"
       cy="105"
       rx="1.369"
       ry=".791"
       fill="#fff"
       paint-order="stroke markers fill"
       id="ellipse953" />
    <ellipse
       cx="43.301"
       cy="-150"
       rx="1.369"
       ry=".791"
       transform="rotate(120)"
       fill="#fff"
       paint-order="stroke markers fill"
       id="ellipse955" />
    <ellipse
       cx="147.224"
       cy="32"
       rx="1.369"
       ry=".791"
       transform="scale(1 -1) rotate(-60)"
       fill="#fff"
       paint-order="stroke markers fill"
       id="ellipse957" />
    <ellipse
       cx="147.224"
       cy="28"
       rx="1.369"
       ry=".791"
       transform="scale(1 -1) rotate(-60)"
       fill="#fff"
       paint-order="stroke markers fill"
       id="ellipse959" />
    <path
       d="M58.832 102.958q0-1.405.537-2.636.536-1.231 1.452-2.147.931-.931 2.162-1.468 1.231-.537 2.636-.537h10.387v4.53H65.619q-.473 0-.884.174-.41.174-.726.49-.3.3-.473.71-.174.41-.174.884 0 .473.174.9.173.41.473.726.316.3.726.473.41.174.884.174h4.53q1.405 0 2.637.536 1.246.521 2.162 1.453.931.915 1.452 2.162.537 1.231.537 2.636t-.537 2.636q-.52 1.231-1.452 2.163-.916.915-2.162 1.452-1.232.537-2.637.537H60.095v-4.53h10.054q.474 0 .884-.174.41-.174.71-.474.316-.315.49-.726.174-.41.174-.884 0-.473-.174-.884-.174-.41-.49-.71-.3-.316-.71-.49-.41-.173-.884-.173h-4.53q-1.405 0-2.636-.537-1.231-.536-2.162-1.452-.916-.931-1.452-2.162-.537-1.247-.537-2.652zM94.221 105.262l-3.157 3.173q-.237-.663-.647-1.184-.41-.536-.931-.9-.505-.363-1.105-.552-.6-.19-1.231-.19-.884 0-1.674.364-.773.363-1.357 1.026-.568.647-.9 1.547-.331.9-.331 1.988 0 .884.331 1.658.332.773.9 1.357.584.584 1.357.916.79.331 1.674.331.63 0 1.215-.173.584-.174 1.09-.49.52-.331.915-.789.41-.473.663-1.042l3.157 3.173q-.6.852-1.39 1.531-.773.679-1.688 1.152-.9.474-1.91.71-.995.253-2.052.253-1.784 0-3.363-.663-1.562-.678-2.746-1.846-1.168-1.169-1.847-2.731-.679-1.563-.679-3.347 0-1.941.68-3.63.678-1.689 1.846-2.936 1.184-1.263 2.746-1.989 1.579-.726 3.363-.726 1.057 0 2.067.268 1.026.269 1.942.79.931.505 1.705 1.247.789.741 1.357 1.704zM119.098 118.806h-4.31V101.9h1.042l1.42 2.005q1.043-.947 2.369-1.452 1.326-.521 2.746-.521h3.804v4.293h-3.804q-.679 0-1.278.253-.6.252-1.042.694-.442.442-.695 1.042-.252.6-.252 1.279zM134.582 114.67q.253.079.506.11.252.016.505.016.631 0 1.215-.173.584-.174 1.09-.49.52-.331.915-.789.41-.473.663-1.042l3.157 3.173q-.6.852-1.39 1.531-.773.679-1.688 1.152-.9.474-1.91.71-.995.253-2.052.253-1.784 0-3.362-.663-1.563-.663-2.747-1.846-1.168-1.184-1.847-2.81-.679-1.642-.679-3.599 0-2.005.68-3.662.678-1.657 1.846-2.826 1.184-1.168 2.747-1.815 1.578-.647 3.362-.647 1.057 0 2.067.253 1.01.252 1.91.726.916.473 1.705 1.168.79.679 1.39 1.53zm2.21-8.887q-.3-.11-.6-.142-.284-.031-.6-.031-.883 0-1.672.331-.774.316-1.358.916-.568.6-.9 1.452-.331.836-.331 1.894 0 .237.016.537.031.3.079.615.063.3.142.584.078.284.205.505z"
       style="line-height:1.25;-inkscape-font-specification:Righteous"
       font-weight="400"
       font-size="32.327"
       font-family="Righteous"
       id="path961" />
  </g>
</svg>
