<svg width="100" height="32" version="1.1" viewBox="0 0 100 32" xmlns="http://www.w3.org/2000/svg">
 <rect width="100" height="32" ry="2.2581" fill="#ff007f" stop-color="#000000" stroke-linecap="round" stroke-width=".44693" style="paint-order:markers stroke fill"/>
 <g fill="#fff">
  <rect x="40.433" y="4.7674" width="22.465" height="22.465" ry="2.0508" stop-color="#000000" stroke-linecap="round" stroke-width=".34044" style="paint-order:markers stroke fill"/>
  <g stroke-width=".84395">
   <path d="m12.453 25.621q-3.4433 0-5.5701-1.5529-2.1099-1.5698-2.5656-4.4223l4.6924-0.70892q0.28694 1.2828 1.2659 2.0086 0.99586 0.7258 2.515 0.7258 1.249 0 1.9242-0.47261 0.67516-0.48949 0.67516-1.3503 0-0.54013-0.27006-0.86083-0.27006-0.33758-1.2153-0.65828-0.92835-0.3207-2.9032-0.84395-2.228-0.57389-3.5615-1.2828-1.3334-0.70892-1.9242-1.6879-0.59077-0.99586-0.59077-2.3968 0-1.7554 0.89459-3.0382 0.89459-1.2997 2.515-1.9917 1.6373-0.70892 3.8484-0.70892 2.1436 0 3.7978 0.65828 1.6541 0.65828 2.6669 1.8736 1.0296 1.2153 1.2659 2.8694l-4.6924 0.84395q-0.11815-1.0127-0.87771-1.6035-0.75956-0.59077-2.0592-0.69204-1.2659-0.08439-2.0424 0.33758-0.75956 0.42198-0.75956 1.2153 0 0.47261 0.3207 0.79332 0.33758 0.3207 1.3672 0.65828 1.0465 0.33758 3.1733 0.87771 2.0761 0.54013 3.3252 1.2659 1.2659 0.70892 1.8398 1.7217 0.57389 0.99586 0.57389 2.4137 0 2.8019-2.0255 4.4054t-5.6038 1.6035z"/>
   <path d="m30.761 25.621q-2.8357 0-4.8612-1.2659t-3.1057-3.4433q-1.0803-2.1774-1.0803-4.9118 0-2.7682 1.114-4.9456 1.1309-2.1774 3.1733-3.4264 2.0424-1.249 4.8274-1.249 3.2239 0 5.4013 1.6373 2.1943 1.6204 2.8019 4.4392l-4.5911 1.2153q-0.4051-1.4178-1.4178-2.2112-0.99586-0.79332-2.2618-0.79332-1.4516 0-2.3799 0.70892-0.92835 0.69204-1.3672 1.9073-0.43886 1.1984-0.43886 2.7175 0 2.3799 1.0465 3.8653 1.0634 1.4685 3.1395 1.4685 1.5529 0 2.3631-0.70892 0.81019-0.70892 1.2153-2.0255l4.6924 0.97898q-0.77644 2.9032-2.937 4.4729-2.1605 1.5698-5.3338 1.5698z"/>
   <path d="m65.025 25.115v-18.229h4.051v4.4561l-0.43886-0.57389q0.35446-0.94523 0.94523-1.7217 0.59077-0.77644 1.4516-1.2828 0.65828-0.4051 1.4347-0.62452 0.77644-0.23631 1.6035-0.28694 0.82707-0.067517 1.6541 0.033754v4.2873q-0.75956-0.23631-1.7723-0.15191-0.99586 0.06752-1.8061 0.45574-0.81019 0.37134-1.3672 0.99586-0.55701 0.60765-0.84395 1.4516-0.28694 0.82707-0.28694 1.8736v9.3172z"/>
   <path d="m86.588 25.621q-2.8019 0-4.9456-1.1984-2.1268-1.2153-3.342-3.3252-1.1984-2.1268-1.1984-4.8612 0-2.9876 1.1815-5.1987 1.1815-2.2112 3.2577-3.4264 2.0761-1.2322 4.7768-1.2322 2.8694 0 4.878 1.3503 2.0086 1.3503 2.9707 3.7978 0.96211 2.4475 0.67516 5.7558h-4.5405v-1.6879q0-2.785-0.89459-4.0003-0.87771-1.2322-2.8863-1.2322-2.3462 0-3.4602 1.4347-1.0971 1.4178-1.0971 4.2029 0 2.5487 1.0971 3.9497 1.114 1.3841 3.2577 1.3841 1.3503 0 2.3124-0.59077 0.9621-0.59077 1.4685-1.7048l4.5911 1.3166q-1.0296 2.4981-3.2577 3.8822-2.2112 1.3841-4.8443 1.3841zm-6.0427-8.3382v-3.4096h12.085v3.4096z"/>
  </g>
 </g>
 <g stroke-linecap="round" stroke-width=".51504">
  <circle cx="51.666" cy="16" r="2.7069" stop-color="#000000" style="paint-order:markers stroke fill"/>
  <circle cx="46.516" cy="21.15" r="2.7069" stop-color="#000000" style="paint-order:markers stroke fill"/>
  <circle cx="46.516" cy="10.85" r="2.7069" stop-color="#000000" style="paint-order:markers stroke fill"/>
  <circle cx="56.816" cy="10.85" r="2.7069" stop-color="#000000" style="paint-order:markers stroke fill"/>
  <circle cx="56.816" cy="21.15" r="2.7069" stop-color="#000000" style="paint-order:markers stroke fill"/>
 </g>
 <rect x="1.8483e-6" y="32" width="100" height="32" ry="2.2581" fill="#1a1a1a" stop-color="#000000" stroke-linecap="round" stroke-width=".44693" style="paint-order:markers stroke fill"/>
 <g fill="#fff">
  <rect x="42.102" y="34.852" width="19.127" height="26.295" ry="2.4005" stop-color="#000000" stroke-linecap="round" stroke-width=".33986" style="paint-order:markers stroke fill"/>
  <g stroke-width=".84395">
   <path d="m12.453 57.621q-3.4433 0-5.5701-1.5529-2.1099-1.5698-2.5656-4.4223l4.6924-0.70892q0.28694 1.2828 1.2659 2.0086 0.99586 0.7258 2.515 0.7258 1.249 0 1.9242-0.47261 0.67516-0.48949 0.67516-1.3503 0-0.54013-0.27006-0.86083-0.27006-0.33758-1.2153-0.65828-0.92835-0.3207-2.9032-0.84395-2.228-0.57389-3.5615-1.2828-1.3334-0.70892-1.9242-1.6879-0.59077-0.99586-0.59077-2.3968 0-1.7554 0.89459-3.0382 0.89459-1.2997 2.515-1.9917 1.6373-0.70892 3.8484-0.70892 2.1436 0 3.7978 0.65828 1.6541 0.65828 2.6669 1.8736 1.0296 1.2153 1.2659 2.8694l-4.6924 0.84395q-0.11815-1.0127-0.87771-1.6035-0.75956-0.59077-2.0592-0.69204-1.2659-0.08439-2.0424 0.33758-0.75956 0.42198-0.75956 1.2153 0 0.47261 0.3207 0.79332 0.33758 0.3207 1.3672 0.65828 1.0465 0.33758 3.1733 0.87771 2.0761 0.54013 3.3252 1.2659 1.2659 0.70892 1.8398 1.7217 0.57389 0.99586 0.57389 2.4137 0 2.8019-2.0255 4.4054t-5.6038 1.6035z"/>
   <path d="m30.761 57.621q-2.8357 0-4.8612-1.2659t-3.1057-3.4433q-1.0803-2.1774-1.0803-4.9118 0-2.7682 1.114-4.9456 1.1309-2.1774 3.1733-3.4264 2.0424-1.249 4.8274-1.249 3.2239 0 5.4013 1.6373 2.1943 1.6204 2.8019 4.4392l-4.5911 1.2153q-0.4051-1.4178-1.4178-2.2112-0.99586-0.79332-2.2618-0.79332-1.4516 0-2.3799 0.70892-0.92835 0.69204-1.3672 1.9073-0.43886 1.1984-0.43886 2.7175 0 2.3799 1.0465 3.8653 1.0634 1.4685 3.1395 1.4685 1.5529 0 2.3631-0.70892 0.81019-0.70892 1.2153-2.0255l4.6924 0.97898q-0.77644 2.9032-2.937 4.4729-2.1605 1.5698-5.3338 1.5698z"/>
   <path d="m65.025 57.115v-18.229h4.051v4.4561l-0.43886-0.57389q0.35446-0.94523 0.94523-1.7217 0.59077-0.77644 1.4516-1.2828 0.65828-0.4051 1.4347-0.62452 0.77644-0.23631 1.6035-0.28694 0.82707-0.06752 1.6541 0.03375v4.2873q-0.75956-0.23631-1.7723-0.15191-0.99586 0.06752-1.8061 0.45573-0.81019 0.37134-1.3672 0.99586-0.55701 0.60765-0.84395 1.4516-0.28694 0.82707-0.28694 1.8736v9.3172z"/>
   <path d="m86.588 57.621q-2.8019 0-4.9456-1.1984-2.1268-1.2153-3.342-3.3252-1.1984-2.1268-1.1984-4.8612 0-2.9876 1.1815-5.1987t3.2577-3.4264q2.0761-1.2322 4.7768-1.2322 2.8694 0 4.878 1.3503 2.0086 1.3503 2.9707 3.7978 0.96211 2.4475 0.67516 5.7558h-4.5405v-1.6879q0-2.785-0.89459-4.0003-0.87771-1.2322-2.8863-1.2322-2.3462 0-3.4602 1.4347-1.0971 1.4178-1.0971 4.2029 0 2.5487 1.0971 3.9497 1.114 1.3841 3.2577 1.3841 1.3503 0 2.3124-0.59077 0.9621-0.59077 1.4685-1.7048l4.5911 1.3166q-1.0296 2.4981-3.2577 3.8822-2.2112 1.3841-4.8443 1.3841zm-6.0427-8.3382v-3.4096h12.085v3.4096z"/>
  </g>
 </g>
 <path d="m57.124 45.825c-0.04892 3.8819-4.7452 6.4433-5.4577 9.4522-0.71249-3.0089-5.4088-5.5703-5.4577-9.4522-0.05094-4.0424 4.7064-3.4273 5.4577-1.2579 0.75129-2.1694 5.5086-2.7844 5.4577 1.2579z" fill="#f00"/>
 <rect x="1.8483e-6" y="64" width="100" height="32" ry="2.2581" fill="#454837" stop-color="#000000" stroke-linecap="round" stroke-width=".44693" style="paint-order:markers stroke fill"/>
 <g fill="#fff" stroke-width=".84395">
  <path d="m12.453 89.621q-3.4433 0-5.5701-1.5529-2.1099-1.5698-2.5656-4.4223l4.6924-0.70892q0.28694 1.2828 1.2659 2.0086 0.99586 0.7258 2.515 0.7258 1.249 0 1.9242-0.47261 0.67516-0.48949 0.67516-1.3503 0-0.54013-0.27006-0.86083-0.27006-0.33758-1.2153-0.65828-0.92835-0.3207-2.9032-0.84395-2.228-0.57389-3.5615-1.2828-1.3334-0.70892-1.9242-1.6879-0.59077-0.99586-0.59077-2.3968 0-1.7554 0.89459-3.0382 0.89459-1.2997 2.515-1.9917 1.6373-0.70892 3.8484-0.70892 2.1436 0 3.7978 0.65828 1.6541 0.65828 2.6669 1.8736 1.0296 1.2153 1.2659 2.8694l-4.6924 0.84395q-0.11815-1.0127-0.87771-1.6035-0.75956-0.59077-2.0592-0.69204-1.2659-0.0844-2.0424 0.33758-0.75956 0.42198-0.75956 1.2153 0 0.47261 0.3207 0.79331 0.33758 0.3207 1.3672 0.65828 1.0465 0.33758 3.1733 0.87771 2.0761 0.54013 3.3252 1.2659 1.2659 0.70892 1.8398 1.7217 0.57389 0.99586 0.57389 2.4137 0 2.8019-2.0255 4.4054t-5.6038 1.6035z"/>
  <path d="m30.761 89.621q-2.8357 0-4.8612-1.2659t-3.1057-3.4433q-1.0803-2.1774-1.0803-4.9118 0-2.7682 1.114-4.9456 1.1309-2.1774 3.1733-3.4264 2.0424-1.249 4.8274-1.249 3.2239 0 5.4013 1.6373 2.1943 1.6204 2.8019 4.4392l-4.5911 1.2153q-0.4051-1.4178-1.4178-2.2112-0.99586-0.79332-2.2618-0.79332-1.4516 0-2.3799 0.70892-0.92835 0.69204-1.3672 1.9073-0.43886 1.1984-0.43886 2.7175 0 2.3799 1.0465 3.8653 1.0634 1.4685 3.1395 1.4685 1.5529 0 2.3631-0.70892 0.81019-0.70892 1.2153-2.0255l4.6924 0.97898q-0.77644 2.9032-2.937 4.4729-2.1605 1.5698-5.3338 1.5698z"/>
  <path d="m65.025 89.115v-18.229h4.051v4.4561l-0.43886-0.57389q0.35446-0.94523 0.94523-1.7217 0.59077-0.77644 1.4516-1.2828 0.65828-0.4051 1.4347-0.62452 0.77644-0.23631 1.6035-0.28694 0.82707-0.06752 1.6541 0.03375v4.2873q-0.75956-0.23631-1.7723-0.15191-0.99586 0.06752-1.8061 0.45574-0.81019 0.37134-1.3672 0.99586-0.55701 0.60765-0.84395 1.4516-0.28694 0.82707-0.28694 1.8736v9.3172z"/>
  <path d="m86.588 89.621q-2.8019 0-4.9456-1.1984-2.1268-1.2153-3.342-3.3252-1.1984-2.1268-1.1984-4.8612 0-2.9876 1.1815-5.1987 1.1815-2.2112 3.2577-3.4264 2.0761-1.2322 4.7768-1.2322 2.8694 0 4.878 1.3503 2.0086 1.3503 2.9707 3.7978 0.96211 2.4475 0.67516 5.7558h-4.5405v-1.6879q0-2.785-0.89459-4.0003-0.87771-1.2322-2.8863-1.2322-2.3462 0-3.4602 1.4347-1.0971 1.4178-1.0971 4.2029 0 2.5487 1.0971 3.9497 1.114 1.3841 3.2577 1.3841 1.3503 0 2.3124-0.59077 0.9621-0.59077 1.4685-1.7048l4.5911 1.3166q-1.0296 2.4981-3.2577 3.8822-2.2112 1.3841-4.8443 1.3841zm-6.0427-8.3382v-3.4096h12.085v3.4096z"/>
 </g>
 <g>
  <circle cx="51.666" cy="80" r="10.978" fill="#e1c13f" stop-color="#000000" style="paint-order:markers stroke fill"/>
  <text x="45.90387" y="86.463165" fill="#867015" font-family="Manrope" font-size="17.978px" stroke-width=".44945" style="line-height:1.25" xml:space="preserve"><tspan x="45.90387" y="86.463165" fill="#867015" font-family="Manrope" font-weight="800" stroke-width=".44945">$</tspan></text>
  <rect x="1.8483e-6" y="96" width="100" height="32" ry="2.2581" fill="#3138ad" stop-color="#000000" stroke-linecap="round" stroke-width=".44693" style="paint-order:markers stroke fill"/>
 </g>
 <g fill="#fff" stroke-width=".84395">
  <path d="m12.453 121.62q-3.4433 0-5.5701-1.5529-2.1099-1.5698-2.5656-4.4223l4.6924-0.70892q0.28694 1.2828 1.2659 2.0086 0.99586 0.7258 2.515 0.7258 1.249 0 1.9242-0.47261 0.67516-0.48949 0.67516-1.3503 0-0.54013-0.27006-0.86084-0.27006-0.33758-1.2153-0.65828-0.92835-0.3207-2.9032-0.84395-2.228-0.57389-3.5615-1.2828-1.3334-0.70892-1.9242-1.6879-0.59077-0.99587-0.59077-2.3968 0-1.7554 0.89459-3.0382 0.89459-1.2997 2.515-1.9917 1.6373-0.70892 3.8484-0.70892 2.1436 0 3.7978 0.65829 1.6541 0.65827 2.6669 1.8736 1.0296 1.2153 1.2659 2.8694l-4.6924 0.84395q-0.11815-1.0127-0.87771-1.6035-0.75956-0.59077-2.0592-0.69204-1.2659-0.0844-2.0424 0.33758-0.75956 0.42197-0.75956 1.2153 0 0.47261 0.3207 0.79331 0.33758 0.3207 1.3672 0.65829 1.0465 0.33757 3.1733 0.8777 2.0761 0.54013 3.3252 1.2659 1.2659 0.70891 1.8398 1.7216 0.57389 0.99587 0.57389 2.4137 0 2.8019-2.0255 4.4054t-5.6038 1.6035z"/>
  <path d="m30.761 121.62q-2.8357 0-4.8612-1.2659-2.0255-1.2659-3.1057-3.4433-1.0803-2.1774-1.0803-4.9118 0-2.7682 1.114-4.9456 1.1309-2.1774 3.1733-3.4264 2.0424-1.249 4.8274-1.249 3.2239 0 5.4013 1.6373 2.1943 1.6204 2.8019 4.4392l-4.5911 1.2153q-0.4051-1.4178-1.4178-2.2112-0.99586-0.79331-2.2618-0.79331-1.4516 0-2.3799 0.70891-0.92835 0.69204-1.3672 1.9073-0.43886 1.1984-0.43886 2.7175 0 2.3799 1.0465 3.8653 1.0634 1.4685 3.1395 1.4685 1.5529 0 2.3631-0.70892 0.81019-0.70892 1.2153-2.0255l4.6924 0.97899q-0.77644 2.9032-2.937 4.4729-2.1605 1.5698-5.3338 1.5698z"/>
  <path d="m65.025 121.11v-18.229h4.051v4.4561l-0.43886-0.57389q0.35446-0.94522 0.94523-1.7217 0.59077-0.77643 1.4516-1.2828 0.65828-0.40509 1.4347-0.62452 0.77644-0.23631 1.6035-0.28695 0.82707-0.0676 1.6541 0.0338v4.2873q-0.75956-0.2363-1.7723-0.15191-0.99586 0.0675-1.8061 0.45573-0.81019 0.37135-1.3672 0.99587-0.55701 0.60764-0.84395 1.4516-0.28694 0.82707-0.28694 1.8736v9.3172z"/>
  <path d="m86.588 121.62q-2.8019 0-4.9456-1.1984-2.1268-1.2153-3.342-3.3252-1.1984-2.1268-1.1984-4.8612 0-2.9876 1.1815-5.1987 1.1815-2.2112 3.2577-3.4264 2.0761-1.2322 4.7768-1.2322 2.8694 0 4.878 1.3503 2.0086 1.3503 2.9707 3.7978 0.96211 2.4475 0.67516 5.7558h-4.5405v-1.6879q0-2.785-0.89459-4.0003-0.87771-1.2322-2.8863-1.2322-2.3462 0-3.4602 1.4347-1.0971 1.4178-1.0971 4.2029 0 2.5487 1.0971 3.9497 1.114 1.3841 3.2577 1.3841 1.3503 0 2.3124-0.59077 0.9621-0.59076 1.4685-1.7048l4.5911 1.3166q-1.0296 2.4981-3.2577 3.8822-2.2112 1.3841-4.8443 1.3841zm-6.0427-8.3382v-3.4096h12.085v3.4096z"/>
 </g>
 <g>
  <circle cx="51.666" cy="112" r="10.978" fill="#cd4fd1" stop-color="#000000" style="paint-order:markers stroke fill"/>
  <circle cx="51.666" cy="112" r="7.4183" fill="#fff" stop-color="#000000" style="paint-order:markers stroke fill"/>
  <circle cx="51.666" cy="112" r="6.7102" fill="#cd4fd1" stop-color="#000000" style="paint-order:markers stroke fill"/>
  <circle cx="51.666" cy="112" r="5.914" fill="#fff" stop-color="#000000" style="paint-order:markers stroke fill"/>
 </g>
 <text x="49.345749" y="114.14526" font-family="sans-serif" font-size="7.3948px" stroke-width=".18487" style="line-height:1.25" xml:space="preserve"><tspan x="49.345749" y="114.14526" font-family="Manrope" stroke-width=".18487">0</tspan></text>
 <rect x="50.018" y="114.7" width="3.2959" height=".40982" stop-color="#000000" style="paint-order:markers stroke fill"/>
 <view id="normal" viewBox="0 0 100 32"></view>
 <view id="card" viewBox="0 32 100 32"></view>
 <view id="money" viewBox="0 64 100 32"></view>
 <view id="bingo" viewBox="0 96 100 32"></view>
</svg>
